<svg width="1159" height="838" viewBox="0 0 1159 838" fill="none" xmlns="http://www.w3.org/2000/svg">
<path fill-rule="evenodd" clip-rule="evenodd" d="M18.6196 404.073C30.7435 345.699 5.38235 311.174 33.489 255.648C63.3383 196.679 61.8918 122.073 130.943 83.0739C200.77 43.637 304.712 65.2643 392.241 53.0305C470.194 42.1351 541.444 27.0688 620.362 33.5743C699.156 40.0696 759.166 67.2159 832.147 89.2939C914.597 114.237 1023.7 105.483 1082.08 153.778C1139.59 201.344 1110.19 275.614 1131.05 336.538C1152.51 399.236 1163.89 469.359 1156.99 533.697C1149.98 599.076 1149.96 645.422 1092.43 696.698C1035.86 747.123 954.932 799.375 869.896 821.934C788.232 843.599 707.276 817.163 620.362 821.934C535.695 826.583 429.202 846.602 346.226 833.77C261.493 820.667 199.245 812.526 130.943 774.572C59.6695 734.967 52.9926 647.764 18.6196 588.302C-15.6917 528.947 5.43599 467.55 18.6196 404.073Z" fill="#FF451C"/>
<path d="M924.112 42.7676C927.415 39.2252 933.322 41.9795 932.732 46.787L928.447 81.6797C928.183 83.8297 929.334 85.9052 931.297 86.8206L963.158 101.678C967.548 103.725 966.753 110.193 961.999 111.117L927.49 117.825C925.364 118.238 923.745 119.974 923.481 122.124L919.197 157.017C918.607 161.824 912.209 163.068 909.861 158.831L892.818 128.084C891.768 126.19 889.617 125.187 887.491 125.6L852.982 132.308C848.227 133.232 845.068 127.532 848.371 123.99L872.346 98.2794C873.824 96.6952 874.113 94.3399 873.063 92.4454L856.019 61.6983C853.671 57.462 858.116 52.6957 862.506 54.7427L894.367 69.5998C896.33 70.5152 898.659 70.0624 900.137 68.4782L924.112 42.7676Z" fill="#070F5D"/>
</svg>
