<svg width="1512" height="824" viewBox="0 0 1512 824" fill="none" xmlns="http://www.w3.org/2000/svg">
<path fill-rule="evenodd" clip-rule="evenodd" d="M1384.75 433.927C1370.27 492.301 1400.57 526.826 1366.99 582.352C1331.32 641.321 1301.38 715.957 1218.88 754.956C1135.44 794.393 1042.91 772.736 938.324 784.969C845.181 795.865 760.047 810.931 665.75 804.426C571.602 797.93 415.834 791.578 328.632 769.5C230.115 744.557 187.569 754.251 117.807 705.956C49.0972 658.39 93.1349 580.88 68.22 519.956C42.5796 457.258 17.3477 420.458 25.5903 356.12C33.9664 290.741 29.9504 130.732 98.6891 79.456C166.287 29.031 265.983 38.6253 367.59 16.0658C465.167 -5.59893 561.9 20.8373 665.75 16.0657C766.916 11.4174 894.161 -8.60211 993.306 4.22972C1094.55 17.3332 1168.93 25.4746 1250.54 63.4279C1335.7 103.033 1343.68 190.236 1384.75 249.698C1425.75 309.053 1400.5 370.45 1384.75 433.927Z" fill="#FF451C"/>
<path d="M1405.14 445.687C1408.44 442.144 1414.35 444.899 1413.76 449.706L1400.27 559.54C1400.01 561.69 1401.16 563.765 1403.12 564.681L1503.41 611.447C1507.8 613.494 1507.01 619.962 1502.25 620.887L1393.63 642.001C1391.5 642.414 1389.88 644.15 1389.62 646.3L1376.13 756.133C1375.54 760.941 1369.14 762.184 1366.79 757.948L1313.15 661.164C1312.1 659.27 1309.95 658.267 1307.82 658.68L1199.19 679.795C1194.44 680.719 1191.28 675.019 1194.58 671.477L1270.05 590.546C1271.53 588.962 1271.82 586.607 1270.77 584.712L1217.12 487.928C1214.77 483.692 1219.22 478.926 1223.61 480.973L1323.9 527.739C1325.86 528.654 1328.19 528.201 1329.67 526.617L1405.14 445.687Z" fill="#070F5D"/>
<path d="M55.9954 53.2981C55.6575 48.4662 61.7 46.0249 64.8134 49.7353L99.8943 91.5431C101.287 93.2025 103.589 93.7766 105.598 92.9651L156.2 72.5205C160.691 70.7061 164.88 75.6984 162.313 79.806L133.392 126.089C132.244 127.926 132.41 130.293 133.802 131.953L168.883 173.761C171.996 177.471 168.543 182.998 163.843 181.826L110.888 168.623C108.786 168.099 106.586 168.988 105.438 170.825L76.5172 217.108C73.9505 221.216 67.627 219.639 67.2892 214.807L63.4821 160.364C63.331 158.203 61.8057 156.385 59.7039 155.861L6.74885 142.658C2.04911 141.486 1.59451 134.985 6.08543 133.171L56.6876 112.726C58.696 111.915 59.9535 109.902 59.8024 107.741L55.9954 53.2981Z" fill="#070F5D"/>
</svg>
