<svg xmlns="http://www.w3.org/2000/svg" style="fill:#000" version="1.0" viewBox="-5.8 -29.9 335.5 713.5"><path d="M271.46 148.53c58.2-94.35-26.02-134.3-26.02-134.3s-86.97-44.17-113.66 73.33c-.81 3.55-1.55 7.06-2.23 10.53C106.61 71.32 71.18 79.3 71.18 79.3S.38 93.28 38.47 173.88c13.14 27.8 28.69 48.8 43.43 64.4 31.31-11.39 60.43-7.88 60.43-7.88s23.09 2.16 49.1 15.32c23.17-20.86 52.45-52.46 80.05-97.2Z" style="fill:#ff451c"/><path d="M81.89 238.28c-41.74 15.18-87.38 56.84-73.18 168.6 17.51 137.79 75.61 222.94 108.42 261.24 11.53 13.46 32.71 12.28 42.62-2.4 26.29-38.93 72.64-120.78 97.88-243.44 22.3-108.4-25.53-155.94-66.22-176.54-26.01-13.17-49.1-15.32-49.1-15.32s-29.11-3.51-60.43 7.88Z" style="fill:#ff451c"/><path d="M276.62 151.71c19.86-32.19 25.95-61.97 18.1-88.5-10.84-36.67-44.33-53.33-46.61-54.42-2.28-1.14-36.62-17.79-70.16-2.06-25.25 11.85-42.76 38.56-52.06 79.4-.9-.72-1.81-1.42-2.75-2.08-23.53-16.74-51.17-11.12-53.22-10.67-2.05.42-30.23 6.59-42.88 31.66-9.53 18.89-7.53 42.93 5.94 71.44 11.7 24.76 25.29 44.27 38.6 59.48-13.18 5.87-24.83 13.77-34.5 23.5-31.3 31.5-42.87 81.36-34.38 148.18 17.69 139.18 76.4 225.4 109.83 264.42 6.33 7.38 15.33 11.51 24.96 11.51.64 0 1.29-.02 1.94-.06 10.32-.59 19.56-5.85 25.35-14.41 25.92-38.39 73.22-121.34 98.79-245.61 12.24-59.51 5.14-107.66-21.13-143.13-12.08-16.32-26.85-27.85-40.73-35.9 22.33-21.02 49.37-51.36 74.91-92.75ZM251.7 421.05c-25.15 122.22-71.54 203.62-96.96 241.27-3.65 5.41-9.48 8.72-16 9.09-6.54.38-12.74-2.26-17-7.24-32.55-37.98-89.73-122.02-107.01-258.06-7.99-62.87 2.4-109.31 30.89-138.04 28.19-28.43 67.52-32.08 85.85-32.08 6.2 0 9.99.42 10.14.43l.15.02c.57.05 57.62 6.01 91.04 51.24 24.06 32.57 30.42 77.45 18.92 133.37ZM37.82 110.58c10.11-20.18 34.3-25.29 34.54-25.34l.13-.03c.24-.05 24.28-5.13 43.73 8.78 2.44 1.74 4.71 3.72 6.81 5.91-9.61 51.01-6.49 93.26-.23 124.15-2.45.13-5.06.33-7.82.61l-34.2-89.98 22.77 91.6c-6.89 1.23-13.53 2.9-19.88 5.01-13.56-14.88-27.67-34.5-39.72-60.01-11.77-24.91-13.83-45.33-6.12-60.71Zm140.96 122.95c-5.47-2.09-10.6-3.72-15.17-4.98l46.58-122.51-58.03 119.79c-5.24-1.04-8.59-1.39-9.2-1.45-.56-.07-3.36-.37-7.82-.49-6.86-32.38-10.28-78.49 2.55-134.99 8.41-37 23.65-60.94 45.31-71.15 8.75-4.13 17.72-5.56 25.96-5.56 18.63 0 33.54 7.34 33.75 7.45l.13.06c.31.15 30.92 15.14 40.3 47.07 6.77 23.06 1.11 49.5-16.83 78.58-26.09 42.29-53.71 72.66-75.95 93.14-4.08-1.94-7.97-3.58-11.58-4.95Z" style="fill:#fdf7ec"/><path d="M97.93 297.13c13.5-.05 26.84-.02 40.3.68 18.14 1.01 35.82 3.44 53.93 6.6-11.63-8.08-25.35-12.64-39.12-15.51-18.5-3.57-38.07-3.7-56.08 2.32-4.49 1.47-8.86 3.35-12.99 5.76 4.8.25 9.39.11 13.97.15ZM133.44 346.97c-3.79.87-7.6 1.83-11.3 3.04 3.87.52 7.68.79 11.54.98 10.19.88 20.37 1.69 30.53 2.9 20.35 2.65 40.07 6.76 59.76 13.09-6.69-5.95-14.78-10.15-23.03-13.51-21.29-8.45-44.99-10.74-67.5-6.5ZM61.69 457.14c29.13-2.42 57.71-7.44 86.98-7.43-24.22-10.61-63.64-3.53-86.98 7.43Z" style="fill:#fdf7ec"/></svg>