<svg width="410" height="543" viewBox="0 0 410 543" fill="none" xmlns="http://www.w3.org/2000/svg">
<path fill-rule="evenodd" clip-rule="evenodd" d="M196.054 -42.0925C234.116 -54.5989 243.651 -45.1645 284.493 -49.9573C327.868 -55.0472 371.773 -78.2918 414.256 -60.5246C457.215 -42.5581 473.452 8.54749 505.207 42.3505C533.489 72.4553 562.372 98.4223 580.588 134.218C598.776 169.957 599.444 203.908 606.75 241.881C615.005 284.781 650.729 328.885 638.38 368.553C626.219 407.622 573.884 417.549 543.534 444.961C512.3 473.171 473.837 499.314 433.695 515.868C392.904 532.691 365.372 546.736 318.822 537.631C273.044 528.676 233.245 492.183 196.054 462.58C160.338 434.151 93.8481 424.555 66.6966 388.753C40.247 353.876 57.4954 292.243 41.9008 252.79C25.9761 212.502 0.125902 189.958 3.55733 149.176C7.13807 106.619 63.7665 81.0496 89.4652 48.286C115.118 15.5812 136.339 -66.3972 196.054 -42.0925Z" fill="#FF451C" stroke="#FDF7EC" stroke-width="5"/>
</svg>
