<svg width="554" height="447" viewBox="0 0 554 447" fill="none" xmlns="http://www.w3.org/2000/svg">
<path fill-rule="evenodd" clip-rule="evenodd" d="M545.088 240.652C539.285 273.026 551.424 292.173 537.971 322.967C523.684 355.67 511.693 397.063 478.642 418.692C445.22 440.563 408.153 428.552 366.259 435.337C328.947 441.379 294.844 449.735 257.071 446.127C219.357 442.525 156.96 439.002 122.029 426.757C82.5651 412.924 65.5222 418.3 37.577 391.517C10.0534 365.137 27.694 322.15 17.7136 288.363C7.44263 253.591 -2.66473 233.182 0.637085 197.501C3.99237 161.242 2.38361 72.5027 29.9188 44.0656C56.9971 16.1003 96.9333 21.4212 137.635 8.90996C176.722 -3.10511 215.471 11.5562 257.071 8.90987C297.596 6.332 348.568 -4.77065 388.283 2.34577C428.839 9.61282 458.634 14.1279 491.325 35.1765C525.44 57.141 528.636 105.503 545.088 138.48C561.511 171.398 551.398 205.448 545.088 240.652Z" fill="#FF451C"/>
</svg>
