<svg width="776" height="756" viewBox="0 0 776 756" fill="none" xmlns="http://www.w3.org/2000/svg">
<path fill-rule="evenodd" clip-rule="evenodd" d="M661.541 400.71C655.382 448.293 668.266 476.435 653.987 521.696C638.823 569.764 626.096 630.603 591.017 662.392C555.544 694.539 516.203 676.885 471.737 686.857C432.135 695.738 395.94 708.02 355.848 702.717C315.82 697.422 249.593 692.244 212.518 674.247C170.632 653.916 152.543 661.817 122.883 622.451C93.6704 583.678 112.394 520.496 101.801 470.835C90.8994 419.728 80.1717 389.73 83.6762 337.286C87.2374 283.994 85.5299 153.564 114.755 111.768C143.495 70.6642 185.882 78.4849 229.082 60.0959C270.568 42.4361 311.695 63.9852 355.848 60.0957C398.86 56.3068 452.96 39.9881 495.113 50.4478C538.158 61.1289 569.781 67.7652 604.479 98.7024C640.687 130.986 644.079 202.069 661.541 250.538C678.972 298.92 668.238 348.967 661.541 400.71Z" fill="#FDF7EC"/>
<path d="M553.611 22.0783C552.77 17.3082 558.525 14.2487 562.009 17.6133L612.809 66.6706C614.367 68.1753 616.717 68.5055 618.63 67.4886L680.984 34.3342C685.261 32.0603 689.949 36.5874 687.825 40.9408L656.867 104.414C655.918 106.361 656.33 108.698 657.888 110.203L708.688 159.26C712.172 162.625 709.315 168.482 704.519 167.808L634.586 157.98C632.441 157.678 630.345 158.792 629.396 160.739L598.438 224.212C596.314 228.566 589.861 227.659 589.02 222.889L576.757 153.341C576.38 151.208 574.673 149.559 572.528 149.258L502.595 139.429C497.799 138.755 496.667 132.337 500.944 130.063L563.298 96.909C565.21 95.8921 566.251 93.7593 565.875 91.626L553.611 22.0783Z" fill="#070F5D"/>
<path d="M141.932 549.191C144.64 545.175 150.905 546.972 151.074 551.812L152.934 605.069C153.009 607.233 154.47 609.103 156.552 609.7L207.777 624.389C212.433 625.724 212.66 632.237 208.109 633.894L158.034 652.119C155.998 652.86 154.671 654.828 154.747 656.992L156.607 710.249C156.776 715.089 150.652 717.318 147.67 713.502L114.862 671.509C113.528 669.802 111.247 669.148 109.212 669.889L59.1365 688.115C54.5849 689.772 50.5727 684.636 53.2812 680.621L83.0799 636.442C84.2912 634.646 84.2084 632.275 82.8748 630.568L50.0669 588.576C47.0849 584.759 50.7291 579.356 55.3851 580.691L106.61 595.38C108.692 595.977 110.922 595.165 112.133 593.369L141.932 549.191Z" fill="#070F5D"/>
</svg>
