<svg width="45" height="61" viewBox="0 0 45 61" fill="none" xmlns="http://www.w3.org/2000/svg">
<path d="M24.9999 2.97273C24.9848 1.31594 23.6295 -0.0149378 21.9727 0.000123918C20.3159 0.0151856 18.9851 1.37049 19.0001 3.02727L24.9999 2.97273ZM20.3981 60.1405C21.5802 61.3014 23.4796 61.2841 24.6405 60.1019L43.5581 40.8373C44.7189 39.6551 44.7017 37.7557 43.5195 36.5948C42.3373 35.434 40.4379 35.4512 39.277 36.6334L22.4614 53.7575L5.3373 36.9419C4.15512 35.7811 2.25571 35.7983 1.09483 36.9805C-0.0660415 38.1627 -0.0487741 40.0621 1.1334 41.223L20.3981 60.1405ZM19.0001 3.02727L19.5001 58.0273L25.4999 57.9727L24.9999 2.97273L19.0001 3.02727Z" fill="#FF451C"/>
</svg>
