<svg width="21" height="21" viewBox="0 0 21 21" fill="none" xmlns="http://www.w3.org/2000/svg">
<path d="M7.6875 0.375C9.6269 0.375 11.4869 1.14542 12.8582 2.51678C14.2296 3.88814 15 5.7481 15 7.6875C15 9.49875 14.3362 11.1637 13.245 12.4462L13.5488 12.75H14.4375L20.0625 18.375L18.375 20.0625L12.75 14.4375V13.5488L12.4462 13.245C11.1637 14.3362 9.49875 15 7.6875 15C5.7481 15 3.88814 14.2296 2.51678 12.8582C1.14542 11.4869 0.375 9.6269 0.375 7.6875C0.375 5.7481 1.14542 3.88814 2.51678 2.51678C3.88814 1.14542 5.7481 0.375 7.6875 0.375ZM7.6875 2.625C4.875 2.625 2.625 4.875 2.625 7.6875C2.625 10.5 4.875 12.75 7.6875 12.75C10.5 12.75 12.75 10.5 12.75 7.6875C12.75 4.875 10.5 2.625 7.6875 2.625Z" fill="white"/>
</svg>
