<svg width="57" height="40" viewBox="0 0 57 40" fill="none" xmlns="http://www.w3.org/2000/svg">
<path fill-rule="evenodd" clip-rule="evenodd" d="M47.0055 32.5C47.0055 27.592 45.0558 22.8851 41.5854 19.4146C38.1149 15.9442 33.408 13.9945 28.5 13.9945C23.592 13.9945 18.8851 15.9442 15.4146 19.4146C11.9442 22.8851 9.99449 27.592 9.99449 32.5L5 32.5C5 30.8057 5.18298 29.1302 5.53799 27.5C6.48887 23.1336 8.67397 19.092 11.883 15.883C16.2901 11.4759 22.2674 9 28.5 9C34.7326 9 40.7099 11.4759 45.117 15.883C48.326 19.092 50.5111 23.1336 51.462 27.5C51.817 29.1302 52 30.8057 52 32.5H47.0055Z" fill="#FF451C"/>
<path d="M32.5 6.5C32.5 8.70914 30.7091 10.5 28.5 10.5C26.2909 10.5 24.5 8.70914 24.5 6.5C24.5 4.29086 26.2909 2.5 28.5 2.5C30.7091 2.5 32.5 4.29086 32.5 6.5Z" stroke="#FF451C" stroke-width="5"/>
<rect x="2" y="32" width="53" height="6" rx="3" stroke="#FF451C" stroke-width="4"/>
<rect width="6" height="2" transform="translate(46 34)" fill="#FDF7EC"/>
<rect width="6" height="2" transform="translate(5 34)" fill="#FDF7EC"/>
</svg>
